<?xml version="1.0" standalone="no"?><!DOCTYPE svg PUBLIC "-//W3C//DTD SVG 1.1//EN" "http://www.w3.org/Graphics/SVG/1.1/DTD/svg11.dtd"><svg class="icon" width="200px" height="200.00px" viewBox="0 0 1024 1024" version="1.1" xmlns="http://www.w3.org/2000/svg"><path d="M181.179944 458.181257 181.179944 622.562095c0 181.263343 147.499355 328.762699 328.762699 328.762699 181.264367 0 328.762699-147.500379 328.762699-328.762699L838.705342 458.181257 181.179944 458.181257zM783.911388 622.562095c0 151.057391-122.884748 273.969768-273.968745 273.969768-151.083997 0-273.968745-122.912377-273.968745-273.969768L235.973898 512.975211l547.93749 0L783.911388 622.562095zM509.942643 814.33991c45.082778 0 81.815377-36.493146 82.190931-81.495082l0-55.488779c0-45.323255-36.868699-82.191954-82.190931-82.191954-45.323255 0-82.189907 36.868699-82.189907 82.191954l0 55.488779C428.126242 777.846764 464.860888 814.33991 509.942643 814.33991zM482.546689 677.357072c0-15.115256 12.279674-27.396977 27.395954-27.396977 15.115256 0 27.396977 12.281721 27.396977 27.396977l0 54.79293c0 15.089673-12.281721 27.396977-27.396977 27.396977-15.116279 0-27.395954-12.307304-27.395954-27.396977L482.546689 677.357072zM361.962334 387.013381c-44.788066-62.766532-35.530215-150.066831 22.019503-207.616548C448.058201 115.291816 549.620317 112.562659 610.380146 173.296905l83.581604 83.581604 38.741349-38.741349-83.58365-83.609233c-82.137719-82.056877-218.478943-79.354326-303.879985 6.126534-76.571956 76.54535-88.290859 193.544041-27.851325 278.196023L361.962334 387.013381z" /></svg>