<?xml version="1.0" standalone="no"?><!DOCTYPE svg PUBLIC "-//W3C//DTD SVG 1.1//EN" "http://www.w3.org/Graphics/SVG/1.1/DTD/svg11.dtd"><svg class="icon" width="200px" height="200.00px" viewBox="0 0 1024 1024" version="1.1" xmlns="http://www.w3.org/2000/svg"><path d="M548.92901587 43.14886773c23.40571429 13.52330159 102.98514286 80.61968254 172.16203175 94.66311111 53.57307937 11.44279365 109.74679365 13.0031746 138.87390476 13.0031746 17.68431746 0 28.60698413-0.52012698 29.6472381-0.52012698h4.68114285c17.68431746 0 34.32838095 5.72139683 47.33155556 16.12393651 14.04342857 10.92266667 21.84533333 26.52647619 21.84533333 43.17053968v148.23619048c0 548.21384127-423.38336508 618.43098413-441.06768254 621.55174603-8.32203175 1.04025397-16.12393651 1.04025397-24.44596825 0-17.68431746-2.60063492-437.94692063-73.33790476-437.94692064-621.55174603V209.58950265c0-16.64406349 7.80190476-31.72774603 21.84533334-43.17053968 14.04342857-11.44279365 33.28812698-17.16419048 52.01269841-15.60380953 1.04025397 0 12.48304762 0.52012698 29.64723809 0.52012699 29.12711111 0 86.34107937-1.56038095 139.91415874-13.00317461C385.08901587 121.16791535 468.30933333 45.22937566 471.43009524 43.66899471c24.44596825-13.52330159 53.57307937-13.52330159 77.49892063-0.52012698z m-35.36863492 53.57307936S457.90679365 162.77807408 341.91847619 194.50582011 127.10603175 209.06937566 127.10603175 209.06937566v169.04126985c0 498.80177778 377.61219048 537.81130159 384.89396825 538.85155555 0 0 388.01473016-34.84850794 388.01473016-538.85155555V209.06937566s-78.5391746 8.84215873-191.92685714-14.56355555c-112.86755556-22.8855873-194.52749206-97.78387302-194.52749207-97.78387302z m-88.4215873 432.22552381v145.63555556c22.36546032-13.0031746 44.21079365-26.00634921 66.05612698-40.04977778l13.00317461 52.01269841c-39.00952381 23.92584127-80.09955556 45.25104762-122.22984127 62.93536508l-19.24469841-45.25104762c8.32203175-6.24152381 13.52330159-14.56355556 13.52330158-23.92584127v-102.98514285H291.46615873v-47.85168254h133.67263492z m290.75098413-93.10273016v247.06031746c0 43.17053968-20.80507937 65.01587302-61.37498413 65.01587302h-60.85485714l-10.92266667-49.41206349c17.68431746 2.08050794 35.8887619 3.1207619 54.09320635 3.1207619s27.04660317-10.92266667 27.04660318-31.20761904V435.84474074h52.01269841z m-125.35060318 27.04660318v182.04444444h-48.37180952v-182.04444444h48.37180952z m-217.41307936-38.48939683c31.20761905 16.12393651 59.81460317 34.84850794 86.34107936 57.21396826l-31.20761904 34.84850793c-27.56673016-23.40571429-58.25422222-43.17053968-89.98196826-60.33473015l34.84850794-31.72774604z m349.00520635-149.27644444v140.43428571H307.59009524v-140.43428571h414.54120635z m-49.41206349 41.61015873h-73.33790477v57.21396825h73.33790477v-57.21396825z m-120.14933334 0H476.63136508v57.21396825h75.93853968v-57.21396825z m-122.74996825 0h-72.81777778v57.21396825h73.33790476v-57.21396825z" /></svg>